<?xml version="1.0" encoding="utf-8"?>
<!-- Generator: Adobe Illustrator 23.0.1, SVG Export Plug-In . SVG Version: 6.00 Build 0)  -->
<svg version="1.1" id="Calque_1" xmlns="http://www.w3.org/2000/svg" xmlns:xlink="http://www.w3.org/1999/xlink" x="0px" y="0px"
	 viewBox="0 0 118.8 150" style="enable-background:new 0 0 118.8 150;" xml:space="preserve">
<style type="text/css">
	.st0{fill:#79B7BB;stroke:#FFFFFF;stroke-width:3;stroke-miterlimit:10;}
	.st1{fill:#3F3D56;}
	.st2{fill:#FFFFFF;stroke:#000000;stroke-width:0.5;stroke-miterlimit:10;}
	.st3{font-family:'Gotu-Regular';}
	.st4{font-size:24.8176px;}
</style>
<path class="st0" d="M110.9,147.3H3.8c-0.8,0-1.5-0.7-1.5-1.5V3.9c0-0.8,0.7-1.5,1.5-1.5h106.5c3.2,0,5.8,2.6,5.8,5.8v134
	C116.1,145,113.8,147.3,110.9,147.3z"/>
<path class="st1" d="M3.7,145.8h17.2V3.9H3.3C2.6,3.9,2,4.5,2,5.3v138.8C2,145,2.8,145.8,3.7,145.8z"/>
<polygon class="st2" points="74.6,3.9 74.6,53.2 86.3,38.3 96.5,53.2 96.5,3.9 "/>
<rect x="37.2" y="11.3" class="st2" width="37.4" height="12"/>
<rect x="48.8" y="27" class="st2" width="25.8" height="12"/>
<text transform="matrix(1 0 0 1 25.1515 96.0737)" class="st3 st4">STORY</text>
<text transform="matrix(1 0 0 1 37.2961 118.604)" class="st3 st4">BLOG</text>
</svg>
